<svg width="32" height="32" viewBox="0 0 32 32" fill="none" xmlns="http://www.w3.org/2000/svg">
  <rect width="32" height="32" rx="8" fill="url(#gradient)"/>
  
  <!-- Matrix-style grid pattern -->
  <g fill="white" opacity="0.9">
    <!-- Top row -->
    <rect x="6" y="6" width="4" height="4" rx="1"/>
    <rect x="12" y="6" width="4" height="4" rx="1"/>
    <rect x="18" y="6" width="4" height="4" rx="1"/>
    <rect x="24" y="6" width="2" height="4" rx="1"/>
    
    <!-- Second row -->
    <rect x="4" y="12" width="4" height="4" rx="1"/>
    <rect x="10" y="12" width="4" height="4" rx="1"/>
    <rect x="16" y="12" width="4" height="4" rx="1"/>
    <rect x="22" y="12" width="4" height="4" rx="1"/>
    
    <!-- Third row -->
    <rect x="6" y="18" width="4" height="4" rx="1"/>
    <rect x="12" y="18" width="4" height="4" rx="1"/>
    <rect x="18" y="18" width="4" height="4" rx="1"/>
    <rect x="24" y="18" width="2" height="4" rx="1"/>
    
    <!-- Bottom row -->
    <rect x="4" y="24" width="4" height="2" rx="1"/>
    <rect x="10" y="24" width="4" height="2" rx="1"/>
    <rect x="16" y="24" width="4" height="2" rx="1"/>
    <rect x="22" y="24" width="4" height="2" rx="1"/>
  </g>
  
  <!-- Central lock icon for security -->
  <g fill="white" opacity="0.8">
    <rect x="13" y="14" width="6" height="4" rx="1"/>
    <path d="M14 14V12C14 10.5 15.5 9 17 9C18.5 9 20 10.5 20 12V14" stroke="white" stroke-width="1" fill="none"/>
  </g>
  
  <defs>
    <linearGradient id="gradient" x1="0" y1="0" x2="32" y2="32" gradientUnits="userSpaceOnUse">
      <stop stop-color="#6366F1"/>
      <stop offset="0.5" stop-color="#8B5CF6"/>
      <stop offset="1" stop-color="#EC4899"/>
    </linearGradient>
  </defs>
</svg>